<svg width="58" height="60" viewBox="0 0 58 60" fill="none" xmlns="http://www.w3.org/2000/svg">
<path fill-rule="evenodd" clip-rule="evenodd" d="M34.491 25.0862L24.1214 35.8705V34.9328H23.2197L33.5893 24.1484V25.0862H34.491Z" fill="#FEFEFE"/>
<path fill-rule="evenodd" clip-rule="evenodd" d="M34.491 25.0862L24.1214 35.8705L23.2197 34.9328L33.5893 24.1484L34.491 25.0862Z" fill="#FEFEFE"/>
<path fill-rule="evenodd" clip-rule="evenodd" d="M24.1214 24.1484L34.491 34.9328H33.5893V35.8705L23.2197 25.0862H24.1214V24.1484Z" fill="#FEFEFE"/>
<path fill-rule="evenodd" clip-rule="evenodd" d="M24.1214 24.1484L34.491 34.9328L33.5893 35.8705L23.2197 25.0862L24.1214 24.1484Z" fill="#FEFEFE"/>
<path d="M52.2812 5.86523H5.61816V54.3948H52.2812V5.86523Z" fill="black"/>
<path d="M50.4768 7.27148H6.96973V52.5188H50.4768V7.27148Z" fill="#FEFEFE"/>
<path d="M57.6909 30L28.8447 0L-0.00142719 30L28.8447 60L57.6909 30Z" fill="black"/>
<path d="M55.5113 30.0007L28.8447 2.26758L2.17815 30.0007L28.8447 57.7338L55.5113 30.0007Z" fill="#FEFEFE"/>
<path fill-rule="evenodd" clip-rule="evenodd" d="M31.3341 9.37695V16.4102H26.376V9.37695H31.3341ZM31.3341 43.8399V50.6388H26.376V43.8399H31.3341Z" fill="black"/>
<path fill-rule="evenodd" clip-rule="evenodd" d="M9.4541 27.4316H15.0897V32.5894H9.4541V27.4316ZM42.1408 27.4316H48.2272V32.5894H42.1408V27.4316Z" fill="black"/>
<path d="M55.91 29.5361H1.34473V30.7002H55.91V29.5361Z" fill="black"/>
<path d="M29.4229 58.3846L29.4229 1.63672L28.3044 1.63672L28.3044 58.3846L29.4229 58.3846Z" fill="black"/>
<path fill-rule="evenodd" clip-rule="evenodd" d="M51.3795 5.86523H52.0558V6.56856L34.0217 25.5584L33.12 24.6206L51.3795 5.86523ZM24.5539 35.405L6.29444 54.1603H5.61816V53.457L23.6522 34.4672L24.5539 35.405Z" fill="black"/>
<path fill-rule="evenodd" clip-rule="evenodd" d="M49.8005 7.27148H50.7022V8.20925L34.0207 25.558L33.119 24.6202L49.8005 7.27148ZM24.5529 35.4045L7.87143 52.7533H6.96973V51.8155L23.6512 34.4668L24.5529 35.4045Z" fill="black"/>
<path fill-rule="evenodd" clip-rule="evenodd" d="M5.61816 5.86523H6.29444L24.5539 24.6206L23.6522 25.5584L5.61816 6.56856V5.86523ZM34.0217 34.4672L52.0558 53.457V54.1603H51.3795L33.12 35.405L34.0217 34.4672Z" fill="black"/>
<path fill-rule="evenodd" clip-rule="evenodd" d="M6.96973 7.27148H7.87143L24.5529 24.6202L23.6512 25.558L6.96973 8.20925V7.27148ZM34.0207 34.4668L50.7022 51.8155V52.7533H49.8005L33.119 35.4045L34.0207 34.4668Z" fill="black"/>
<path fill-rule="evenodd" clip-rule="evenodd" d="M14.8682 25.0828H24.1106V15.4707H33.5785V25.0828H42.8209V34.9294H33.5785V44.5415H24.1106V34.9294H14.8682V25.0828Z" fill="#898989"/>
<path d="M48.0302 29.5361H9.4541V30.7002H48.0302V29.5361Z" fill="#FEFEFE"/>
<path d="M29.4229 50.6526L29.4229 9.37695L28.3044 9.37695L28.3044 50.6526L29.4229 50.6526Z" fill="#FEFEFE"/>
<path fill-rule="evenodd" clip-rule="evenodd" d="M34.491 25.0862L24.1214 35.8705V34.9328H23.2197L33.5893 24.1484V25.0862H34.491Z" fill="#FEFEFE"/>
<path fill-rule="evenodd" clip-rule="evenodd" d="M34.491 25.0862C30.8842 28.6028 27.5028 32.1195 24.1214 35.8705C23.896 35.4017 23.6706 35.1672 23.2197 34.9328C26.8265 31.4161 30.2079 27.8995 33.5893 24.1484C33.8147 24.6173 34.0401 24.8518 34.491 25.0862Z" fill="#FEFEFE"/>
<path fill-rule="evenodd" clip-rule="evenodd" d="M24.1214 24.1484L34.491 34.9328H33.5893V35.8705L23.2197 25.0862H24.1214V24.1484Z" fill="#FEFEFE"/>
<path fill-rule="evenodd" clip-rule="evenodd" d="M24.1214 24.1484C27.5028 27.8995 30.8842 31.4161 34.491 34.9328C34.0401 35.1672 33.8147 35.4017 33.5893 35.8705C30.2079 32.1195 26.8265 28.6028 23.2197 25.0862C23.6706 24.8518 23.896 24.6173 24.1214 24.1484Z" fill="#FEFEFE"/>
</svg>
