<svg width="29" height="29" viewBox="0 0 29 29" fill="none" xmlns="http://www.w3.org/2000/svg">
<path fill-rule="evenodd" clip-rule="evenodd" d="M17.2966 12.1251L12.2611 17.3376V16.8843H11.8232L16.8588 11.6719V12.1251H17.2966Z" fill="#FEFEFE"/>
<path fill-rule="evenodd" clip-rule="evenodd" d="M17.2966 12.1251L12.2611 17.3376L11.8232 16.8843L16.8588 11.6719L17.2966 12.1251Z" fill="#FEFEFE"/>
<path fill-rule="evenodd" clip-rule="evenodd" d="M12.2611 11.6719L17.2966 16.8843H16.8588V17.3376L11.8232 12.1251H12.2611V11.6719Z" fill="#FEFEFE"/>
<path fill-rule="evenodd" clip-rule="evenodd" d="M12.2611 11.6719L17.2966 16.8843L16.8588 17.3376L11.8232 12.1251L12.2611 11.6719Z" fill="#FEFEFE"/>
<path d="M25.9362 2.83496H3.27637V26.2909H25.9362V2.83496Z" fill="black"/>
<path d="M25.0589 3.51465H3.93164V25.3842H25.0589V3.51465Z" fill="#FEFEFE"/>
<path d="M28.5606 14.5L14.5527 0L0.544874 14.5L14.5527 29L28.5606 14.5Z" fill="black"/>
<path d="M27.5022 14.5L14.5527 1.0957L1.60329 14.5L14.5527 27.9044L27.5022 14.5Z" fill="#FEFEFE"/>
<path fill-rule="evenodd" clip-rule="evenodd" d="M15.7593 4.53223V7.93164H13.3516V4.53223H15.7593ZM15.7593 21.1893V24.4754H13.3516V21.1893H15.7593Z" fill="black"/>
<path fill-rule="evenodd" clip-rule="evenodd" d="M5.14062 13.2578H7.87732V15.7507H5.14062V13.2578ZM21.0135 13.2578H23.9691V15.7507H21.0135V13.2578Z" fill="black"/>
<path d="M27.6994 14.2754H1.20215V14.838H27.6994V14.2754Z" fill="black"/>
<path d="M14.834 28.2192L14.834 0.791016L14.2899 0.791016L14.2899 28.2192L14.834 28.2192Z" fill="black"/>
<path fill-rule="evenodd" clip-rule="evenodd" d="M25.4983 2.83496H25.8267V3.1749L17.0693 12.3533L16.6314 11.9001L25.4983 2.83496ZM12.4717 17.1125L3.60477 26.1776H3.27637V25.8376L12.0338 16.6592L12.4717 17.1125Z" fill="black"/>
<path fill-rule="evenodd" clip-rule="evenodd" d="M24.7305 3.51465H25.1684V3.9679L17.0678 12.3531L16.6299 11.8999L24.7305 3.51465ZM12.4701 17.1123L4.36951 25.4975H3.93164V25.0443L12.0323 16.659L12.4701 17.1123Z" fill="black"/>
<path fill-rule="evenodd" clip-rule="evenodd" d="M3.27637 2.83496H3.60477L12.4717 11.9001L12.0338 12.3533L3.27637 3.1749V2.83496ZM17.0693 16.6592L25.8267 25.8376V26.1776H25.4983L16.6314 17.1125L17.0693 16.6592Z" fill="black"/>
<path fill-rule="evenodd" clip-rule="evenodd" d="M3.93164 3.51465H4.36951L12.4701 11.8999L12.0323 12.3531L3.93164 3.9679V3.51465ZM17.0678 16.659L25.1684 25.0443V25.4975H24.7305L16.6299 17.1123L17.0678 16.659Z" fill="black"/>
<path fill-rule="evenodd" clip-rule="evenodd" d="M7.76855 12.1234H12.2567V7.47754H16.8544V12.1234H21.3426V16.8826H16.8544V21.5284H12.2567V16.8826H7.76855V12.1234Z" fill="#898989"/>
<path d="M23.8734 14.2754H5.14062V14.838H23.8734V14.2754Z" fill="#FEFEFE"/>
<path d="M14.833 24.4821L14.833 4.53223L14.2889 4.53223L14.2889 24.4821L14.833 24.4821Z" fill="#FEFEFE"/>
<path fill-rule="evenodd" clip-rule="evenodd" d="M17.2966 12.1251L12.2611 17.3376V16.8843H11.8232L16.8588 11.6719V12.1251H17.2966Z" fill="#FEFEFE"/>
<path fill-rule="evenodd" clip-rule="evenodd" d="M17.2966 12.1251C15.5451 13.8248 13.9031 15.5245 12.2611 17.3376C12.1516 17.1109 12.0422 16.9976 11.8232 16.8843C13.5747 15.1846 15.2167 13.4849 16.8588 11.6719C16.9682 11.8985 17.0777 12.0118 17.2966 12.1251Z" fill="#FEFEFE"/>
<path fill-rule="evenodd" clip-rule="evenodd" d="M12.2611 11.6719L17.2966 16.8843H16.8588V17.3376L11.8232 12.1251H12.2611V11.6719Z" fill="#FEFEFE"/>
<path fill-rule="evenodd" clip-rule="evenodd" d="M12.2611 11.6719C13.9031 13.4849 15.5451 15.1846 17.2966 16.8843C17.0777 16.9976 16.9682 17.1109 16.8588 17.3376C15.2167 15.5245 13.5747 13.8248 11.8232 12.1251C12.0422 12.0118 12.1516 11.8985 12.2611 11.6719Z" fill="#FEFEFE"/>
</svg>
